<svg id="Layer_1" data-name="Layer 1" xmlns="http://www.w3.org/2000/svg" viewBox="0 0 180 180"><defs><style>.cls-1{fill:#524acd;}</style></defs><path id="Icon_awesome-money-check-alt" data-name="Icon awesome-money-check-alt" class="cls-1" d="M162.47,33.93H17.53a8.05,8.05,0,0,0-8.06,8v96.63a8.05,8.05,0,0,0,8.06,8H162.47a8.05,8.05,0,0,0,8.06-8V42A8.05,8.05,0,0,0,162.47,33.93ZM53.76,108.37v4a2,2,0,0,1-2,2h-4a2,2,0,0,1-2-2h0v-4.09a14.48,14.48,0,0,1-7.89-2.86,2,2,0,0,1-.35-2.83,1.51,1.51,0,0,1,.21-.23l3-2.82a2.06,2.06,0,0,1,2.55-.18,6.11,6.11,0,0,0,3.22.94h7.09a3.18,3.18,0,0,0,3-3.32,3.29,3.29,0,0,0-2.21-3.22l-11.33-3.4A11.39,11.39,0,0,1,35,79.5,11.2,11.2,0,0,1,45.72,68.16v-4a2,2,0,0,1,2-2h4a2,2,0,0,1,2,2h0v4.1a14.4,14.4,0,0,1,7.9,2.86A2,2,0,0,1,62,73.92l-.21.23-3,2.82a2.08,2.08,0,0,1-2.55.18,6,6,0,0,0-3.22-.94H46a3.17,3.17,0,0,0-3,3.32,3.28,3.28,0,0,0,2.21,3.22l11.32,3.4a11.4,11.4,0,0,1,7.95,10.92,11.21,11.21,0,0,1-10.73,11.31Zm60.4-4a2,2,0,0,1-2,2H84a2,2,0,0,1-2-2h0v-4a2,2,0,0,1,2-2h28.19a2,2,0,0,1,2,2h0Zm40.26,0a2,2,0,0,1-2,2H132.28a2,2,0,0,1-2-2h0v-4a2,2,0,0,1,2-2h20.13a2,2,0,0,1,2,2h0Zm0-24.16a2,2,0,0,1-2,2H84a2,2,0,0,1-2-2h0v-4a2,2,0,0,1,2-2h68.45a2,2,0,0,1,2,2h0Z"/></svg>