<svg id="Layer_1" data-name="Layer 1" xmlns="http://www.w3.org/2000/svg" viewBox="0 0 180 180"><defs><style>.cls-1{fill:#524acd;stroke-miterlimit:10;stroke-width:5px;}.cls-1,.cls-2{stroke:#524acd;}.cls-2{fill:none;stroke-linecap:round;stroke-linejoin:round;stroke-width:20px;}</style></defs><path class="cls-1" d="M88.34,120.28a6.91,6.91,0,0,0,5.32,0,6.78,6.78,0,0,0,1.74-1.16c.15-.13.35-.18.49-.33L133.74,81A6.92,6.92,0,0,0,124,71.17l-26,26V23.06a6.92,6.92,0,0,0-13.84,0V97.21l-26-26A6.92,6.92,0,1,0,48.26,81l37.85,37.84c.15.15.34.2.49.33A7,7,0,0,0,88.34,120.28Z"/><polyline class="cls-2" points="156.01 129.13 156.01 150.5 25.98 150.5 25.98 129.13"/></svg>