<svg id="Layer_1" data-name="Layer 1" xmlns="http://www.w3.org/2000/svg" viewBox="0 0 180 180"><g id="Path_27" data-name="Path 27"><path d="M90,172.83A82.83,82.83,0,1,1,172.83,90,82.93,82.93,0,0,1,90,172.83ZM90,20.17A69.84,69.84,0,1,0,159.83,90,69.9,69.9,0,0,0,90,20.17Z" style="fill:#524acd"/></g><g id="Path_28" data-name="Path 28"><path d="M89.39,104.14a6.5,6.5,0,0,1-2-12.66c4.78-1.61,18.46-8.17,18.46-16.74a16.41,16.41,0,0,0-31.88-5.47A6.5,6.5,0,1,1,61.66,65a29.4,29.4,0,0,1,57.13,9.8c0,19.71-26.23,28.68-27.34,29.06A6.77,6.77,0,0,1,89.39,104.14Z" style="fill:#524acd"/></g><g id="Path_29" data-name="Path 29"><path d="M90,134.65a6.83,6.83,0,0,1-4.61-1.88,6.73,6.73,0,0,1-1.89-4.62,6.5,6.5,0,1,1,13,0,6.44,6.44,0,0,1-6.5,6.5Z" style="fill:#524acd"/></g></svg>