<svg xmlns="http://www.w3.org/2000/svg" viewBox="0 0 180 180"><g id="Layer_1" data-name="Layer 1"><path d="M171.78,87.9,136,63.51V42.77H124V55.34L91.49,33.25,11.21,87.9,18,97.82l9.18-6.25v43.49c0,7.82,6.85,14.18,15.26,14.18H79.25V113.92a13.93,13.93,0,0,1,2-5.74c2.11-3.35,5.62-5,10.73-5s8.63,1.64,10.74,5a14.05,14.05,0,0,1,2,5.72v35.34h36.85c8.41,0,15.25-6.36,15.25-14.18V92.17l8.3,5.65Zm-27.06,47.16c0,1-1.39,2.18-3.25,2.18H116.62V113.46a25.61,25.61,0,0,0-3.41-11c-3-5.12-9.13-11.22-21.27-11.22-17.43,0-24.31,13.32-24.68,22.27v23.78H42.4c-1.87,0-3.26-1.15-3.26-2.18V83.4L91.49,47.77,144.72,84Z" style="fill:#524acd"/></g><g id="Layer_2" data-name="Layer 2"><polyline points="21.17 83.14 92.49 28.73 163.81 83.14" style="fill:none;stroke:#524acd;stroke-miterlimit:10;opacity:0.1"/><rect x="39.19" y="77.64" width="107.53" height="67.24" rx="8.46" style="fill:none;stroke:#524acd;stroke-miterlimit:10;opacity:0.1"/><rect x="75.86" y="111.25" width="34.17" height="33.62" style="fill:none;stroke:#524acd;stroke-miterlimit:10;opacity:0.1"/><circle cx="92.95" cy="111.25" r="17.09" style="fill:none;stroke:#524acd;stroke-miterlimit:10;opacity:0.1"/></g></svg>