<svg id="Layer_1" data-name="Layer 1" xmlns="http://www.w3.org/2000/svg" viewBox="0 0 180 180"><path d="M-294.54,11.19a65.37,65.37,0,0,0-65.37,65.37,65.07,65.07,0,0,0,13.74,40.06,6.19,6.19,0,0,0-.86.69l-37.65,36.2a7,7,0,0,0-.2,9.9,7,7,0,0,0,9.9.19l37.65-36.2a7.94,7.94,0,0,0,.73-.82,65.09,65.09,0,0,0,42.06,15.34,65.37,65.37,0,0,0,65.37-65.36A65.37,65.37,0,0,0-294.54,11.19Zm0,116.73a51.43,51.43,0,0,1-51.37-51.36,51.43,51.43,0,0,1,51.37-51.37,51.43,51.43,0,0,1,51.37,51.37A51.43,51.43,0,0,1-294.54,127.92Zm200-116.73a65.37,65.37,0,0,0-65.37,65.37,65.07,65.07,0,0,0,13.74,40.06,6.19,6.19,0,0,0-.86.69l-37.65,36.2a7,7,0,0,0-.2,9.9,7,7,0,0,0,9.9.19l37.65-36.2a7.94,7.94,0,0,0,.73-.82,65.09,65.09,0,0,0,42.06,15.34A65.37,65.37,0,0,0-29.17,76.56,65.37,65.37,0,0,0-94.54,11.19Zm0,116.73a51.43,51.43,0,0,1-51.37-51.36A51.43,51.43,0,0,1-94.54,25.19,51.43,51.43,0,0,1-43.17,76.56,51.43,51.43,0,0,1-94.54,127.92Zm200-116.73A65.34,65.34,0,0,0,53.83,116.62a6.19,6.19,0,0,0-.86.69l-37.65,36.2A7,7,0,1,0,25,163.6l37.65-36.2a7.94,7.94,0,0,0,.73-.82A65.36,65.36,0,1,0,105.46,11.19Zm0,116.73a51.37,51.37,0,1,1,51.37-51.36A51.43,51.43,0,0,1,105.46,127.92Zm-373.19-44.2h-53.76a6,6,0,0,1-6-6h0a6,6,0,0,1,6-6.05h53.76a6.05,6.05,0,0,1,6.05,6.05h0A6,6,0,0,1-267.73,83.72ZM-288.56,50.8v53.76a6,6,0,0,1-6.05,6h0a6,6,0,0,1-6-6V50.8a6,6,0,0,1,6-6h0A6.05,6.05,0,0,1-288.56,50.8ZM-65.73,84.72h-53.76a6,6,0,0,1-6-6h0a6,6,0,0,1,6-6.05h53.76a6.05,6.05,0,0,1,6.05,6.05h0A6,6,0,0,1-65.73,84.72Z" style="fill:#524acd"/></svg>