<svg id="Layer_1" data-name="Layer 1" xmlns="http://www.w3.org/2000/svg" viewBox="0 0 180 180"><path id="Icon_awesome-warehouse" data-name="Icon awesome-warehouse" d="M135.73,110.61H46.37a2,2,0,0,0-1.95,2l0,11.67a1.94,1.94,0,0,0,1.94,1.94h89.39a1.94,1.94,0,0,0,2-1.94V112.56A2,2,0,0,0,135.73,110.61Zm0,23.34H46.29a1.94,1.94,0,0,0-1.94,2l0,11.67a2,2,0,0,0,2,1.94h89.46a2,2,0,0,0,2-1.94V135.9A2,2,0,0,0,135.73,134Zm0-46.68H46.4a2,2,0,0,0-1.95,2l0,11.67a1.94,1.94,0,0,0,2,1.94h89.35a2,2,0,0,0,1.94-1.94V89.22A2,2,0,0,0,135.73,87.27Zm25.9-33.79L95.47,25.93a11.69,11.69,0,0,0-9,0L20.37,53.48A11.71,11.71,0,0,0,13.2,64.25v83.33a2,2,0,0,0,2,1.93H34.6a2,2,0,0,0,1.95-1.94V87.27a7.86,7.86,0,0,1,7.92-7.78h93.06a7.87,7.87,0,0,1,7.93,7.78v60.3a1.94,1.94,0,0,0,1.94,1.94h19.45a2,2,0,0,0,2-1.94V64.24A11.72,11.72,0,0,0,161.63,53.48Z" style="fill:#524acd"/></svg>