<svg id="Layer_1" data-name="Layer 1" xmlns="http://www.w3.org/2000/svg" viewBox="0 0 180 180"><path d="M148.26,89.78a8,8,0,0,0-16,0,45.19,45.19,0,0,1-43.19,45.16L76.87,128l19.29-5.42a8,8,0,0,0-4.32-15.4L54.11,117.79h0l-.13,0-.61.2-.29.13-.42.19-.33.18-.35.21a3.37,3.37,0,0,0-.31.21l-.33.24a3.22,3.22,0,0,0-.28.24,3.74,3.74,0,0,0-.31.27c-.09.08-.17.18-.26.27l-.28.29-.27.35c-.07.09-.14.17-.2.26a6.9,6.9,0,0,0-.43.67h0a6.38,6.38,0,0,0-.35.69c-.05.11-.09.22-.13.33s-.11.26-.15.4-.08.26-.12.39l-.09.36c0,.13,0,.27-.08.4l-.06.37,0,.4,0,.38c0,.13,0,.26,0,.4s0,.25,0,.38,0,.29,0,.43,0,.23,0,.34.08.37.12.55,0,.14,0,.21v0h0L58.62,165a8,8,0,0,0,7.71,5.91,8.46,8.46,0,0,0,2.1-.27,8,8,0,0,0,5.63-9.81L69,141.92l14.15,8,.05,0a7,7,0,0,0,.87.42,1,1,0,0,0,.16.06q.36.13.72.24l.3.08a5.86,5.86,0,0,0,.63.12l.3.05c.27,0,.53,0,.8.05h.13a61.2,61.2,0,0,0,61.2-61.21Z" style="fill:#fff"/><path d="M85.07,44.62l13.44,7.44-19,5.34a8,8,0,0,0,2.15,15.7,8.11,8.11,0,0,0,2.17-.3l37.77-10.61a7.07,7.07,0,0,0,.85-.29l.19-.09a7.13,7.13,0,0,0,.68-.33l.24-.14a5.5,5.5,0,0,0,.64-.43l.16-.11a6.89,6.89,0,0,0,.7-.62c.07-.06.12-.13.18-.19s.33-.37.48-.56a1.84,1.84,0,0,0,.17-.22,8.67,8.67,0,0,0,.53-.81l0,0c0-.09.08-.18.13-.26s.14-.27.2-.41l.14-.36c0-.12.09-.24.13-.37s.08-.26.12-.39l.09-.36c0-.13.05-.27.07-.4s0-.25.06-.37,0-.26,0-.4l0-.38c0-.13,0-.26,0-.4s0-.25,0-.38,0-.28,0-.41,0-.24,0-.36-.07-.31-.1-.46a1.83,1.83,0,0,0-.06-.25L117,15a8,8,0,1,0-15.44,4.17l5.18,19.2L90.92,29.57h0a7.84,7.84,0,0,0-1.75-.71,8.37,8.37,0,0,0-2.1-.29h0A61.22,61.22,0,0,0,25.84,89.78a8,8,0,0,0,16,0A45.21,45.21,0,0,1,85.07,44.62Z" style="fill:#fff"/></svg>