<svg id="Layer_1" data-name="Layer 1" xmlns="http://www.w3.org/2000/svg" viewBox="0 0 180 180"><path d="M105.46,11.19A65.34,65.34,0,0,0,53.83,116.62a6.19,6.19,0,0,0-.86.69l-37.65,36.2A7,7,0,1,0,25,163.6l37.65-36.2a7.94,7.94,0,0,0,.73-.82A65.36,65.36,0,1,0,105.46,11.19Zm0,116.73a51.37,51.37,0,1,1,51.37-51.36A51.43,51.43,0,0,1,105.46,127.92Zm200-116.73a65.34,65.34,0,0,0-51.63,105.43,6.19,6.19,0,0,0-.86.69l-37.65,36.2A7,7,0,1,0,225,163.6l37.65-36.2a7.94,7.94,0,0,0,.73-.82A65.36,65.36,0,1,0,305.46,11.19Zm0,116.73a51.37,51.37,0,1,1,51.37-51.36A51.43,51.43,0,0,1,305.46,127.92Zm200-116.73a65.34,65.34,0,0,0-51.63,105.43,6.19,6.19,0,0,0-.86.69l-37.65,36.2A7,7,0,1,0,425,163.6l37.65-36.2a7.94,7.94,0,0,0,.73-.82A65.36,65.36,0,1,0,505.46,11.19Zm0,116.73a51.37,51.37,0,1,1,51.37-51.36A51.43,51.43,0,0,1,505.46,127.92ZM132.27,83.72H78.51a6,6,0,0,1-6-6h0a6,6,0,0,1,6-6.05h53.76a6.05,6.05,0,0,1,6,6.05h0A6,6,0,0,1,132.27,83.72ZM111.44,50.8v53.76a6,6,0,0,1-6,6h0a6,6,0,0,1-6-6V50.8a6,6,0,0,1,6-6h0A6.05,6.05,0,0,1,111.44,50.8ZM334.27,84.72H280.51a6,6,0,0,1-6-6h0a6,6,0,0,1,6-6.05h53.76a6.05,6.05,0,0,1,6.05,6.05h0A6,6,0,0,1,334.27,84.72Z" style="fill:#524acd"/></svg>