<svg id="Layer_1" data-name="Layer 1" xmlns="http://www.w3.org/2000/svg" viewBox="0 0 360 178.28"><polyline points="147.06 94.86 129.39 77.19 182.39 24.19 235.39 77.19 217.72 94.86 200.06 77.19 182.39 94.86 164.72 77.19 147.06 94.86" style="fill:#5747d7;fill-rule:evenodd"/><path d="M58.7,140.44c0-3.72-4.09-5.3-13.39-5.3-14.7,0-21-3.91-21-13.3s7.45-14.61,21.4-14.61c12.84,0,21.4,6,21.4,14.89H57.77c0-3.91-4.83-6.52-12.09-6.52-7.91,0-12.09,2.14-12.09,6.24,0,3.53,3.72,4.93,12.56,4.93C61.49,126.77,68,131,68,140.44c0,9.86-7.82,15.17-22.33,15.17-13.4,0-22.33-6-22.33-14.89h9.31c0,3.91,5.21,6.51,13,6.51C54.15,147.23,58.7,144.81,58.7,140.44Z" style="fill:#5747d7"/><path d="M118.42,132.35V108.16h9.31v24.19c0,13.39-9.49,23.26-22.33,23.26s-22.33-9.87-22.33-23.26V108.16h9.31v24.19c0,8.37,5.49,14.42,13,14.42S118.42,140.72,118.42,132.35Z" style="fill:#5747d7"/><path d="M146.52,108.16H180c8.37,0,14,5.58,14,14,0,7.44-4.84,12.65-12.19,13.39a15.86,15.86,0,0,1,1.68,2.23L194,154.67H183.45L171.63,135.6H155.82v19.07h-9.3ZM180,127.23a4.39,4.39,0,0,0,4.65-4.65v-1.39a4.4,4.4,0,0,0-4.65-4.66H155.82v10.7Z" style="fill:#5747d7"/><path d="M218.24,116.53v10.7h27v8.37h-27v10.7h36.28v8.37H208.94V108.16h45.58v8.37Z" style="fill:#5747d7"/><path d="M268.56,108.16h46.52v8.37H296.47v38.14h-9.3V116.53H268.56Z" style="fill:#5747d7"/><path d="M328.19,154.67V108.16h9.3v46.51Z" style="fill:#5747d7"/></svg>