<svg id="Layer_1" data-name="Layer 1" xmlns="http://www.w3.org/2000/svg" viewBox="0 0 180 180"><path d="M69.3,151.21H39A8.23,8.23,0,0,1,30.79,143V37A8.23,8.23,0,0,1,39,28.78H69.3A6.92,6.92,0,0,0,69.3,15H39A22.09,22.09,0,0,0,17,37V143a22.09,22.09,0,0,0,22,22.06H69.3a6.92,6.92,0,0,0,0-13.84Z" style="fill:#524acd"/><path d="M166.51,92.65a7,7,0,0,0,0-5.31,7,7,0,0,0-1.16-1.74,4.2,4.2,0,0,0-.33-.49L127.18,47.26A6.92,6.92,0,0,0,117.4,57l26,26H69.29a6.92,6.92,0,0,0,0,13.84h74.15l-26,26a6.92,6.92,0,1,0,9.78,9.78L165,94.89c.15-.15.2-.34.33-.49A7.1,7.1,0,0,0,166.51,92.65Z" style="fill:#524acd"/></svg>