<svg width="33" height="34" viewBox="0 0 33 34" fill="none" xmlns="http://www.w3.org/2000/svg">
<path d="M2.75 13.0765V31.0244H30.25V13.0765L16.5 3.14947L2.75 13.0765ZM0.495 11.6039L15.62 0.683193C15.8671 0.504875 16.1785 0.407227 16.5 0.407227C16.8215 0.407227 17.1329 0.504875 17.38 0.683193L32.505 11.6039C32.6599 11.7157 32.7845 11.8556 32.87 12.0137C32.9555 12.1718 32.9999 12.3443 33 12.5189V32.2158C33 32.5318 32.8551 32.8348 32.5973 33.0583C32.3394 33.2817 31.9897 33.4072 31.625 33.4072H1.375C1.01033 33.4072 0.660591 33.2817 0.402728 33.0583C0.144866 32.8348 0 32.5318 0 32.2158V12.5189C7.55703e-05 12.3443 0.0444543 12.1718 0.129994 12.0137C0.215534 11.8556 0.340143 11.7157 0.495 11.6039Z" fill="#A29EED"/>
</svg>
