<svg width="14" height="12" viewBox="0 0 14 12" fill="none" xmlns="http://www.w3.org/2000/svg">
<path d="M11.3333 0.666748H2C1.46957 0.666748 0.960859 0.877462 0.585787 1.25253C0.210714 1.62761 0 2.13631 0 2.66675V9.33341C0 9.86385 0.210714 10.3726 0.585787 10.7476C0.960859 11.1227 1.46957 11.3334 2 11.3334H11.3333C11.8638 11.3334 12.3725 11.1227 12.7475 10.7476C13.1226 10.3726 13.3333 9.86385 13.3333 9.33341V2.66675C13.3333 2.13631 13.1226 1.62761 12.7475 1.25253C12.3725 0.877462 11.8638 0.666748 11.3333 0.666748ZM10.8867 2.00008L6.66667 5.16675L2.44667 2.00008H10.8867ZM11.3333 10.0001H2C1.82319 10.0001 1.65362 9.92984 1.5286 9.80482C1.40357 9.6798 1.33333 9.51023 1.33333 9.33341V2.83341L6.26667 6.53341C6.38206 6.61996 6.52242 6.66675 6.66667 6.66675C6.81091 6.66675 6.95127 6.61996 7.06667 6.53341L12 2.83341V9.33341C12 9.51023 11.9298 9.6798 11.8047 9.80482C11.6797 9.92984 11.5101 10.0001 11.3333 10.0001Z" fill="#746ED1"/>
</svg>
