<svg width="6" height="10" viewBox="0 0 6 10" fill="none" xmlns="http://www.w3.org/2000/svg">
<path d="M1.66662 9.66655C1.51085 9.66685 1.35989 9.6126 1.23995 9.51321C1.17245 9.45725 1.11665 9.38851 1.07574 9.31095C1.03484 9.23338 1.00965 9.14851 1.00159 9.06119C0.993544 8.97388 1.0028 8.88583 1.02883 8.80209C1.05486 8.71836 1.09715 8.64058 1.15329 8.57321L4.13995 4.99988L1.25995 1.41988C1.20458 1.35169 1.16322 1.27322 1.13827 1.189C1.11331 1.10477 1.10525 1.01644 1.11454 0.929091C1.12384 0.841738 1.1503 0.757084 1.19242 0.679993C1.23453 0.602902 1.29147 0.534894 1.35995 0.479879C1.42893 0.419188 1.50971 0.37341 1.59722 0.345417C1.68472 0.317424 1.77707 0.307822 1.86847 0.317212C1.95986 0.326602 2.04833 0.354781 2.12832 0.399983C2.20831 0.445184 2.27809 0.506431 2.33329 0.579879L5.55329 4.57988C5.65134 4.69917 5.70494 4.8488 5.70494 5.00321C5.70494 5.15763 5.65134 5.30726 5.55329 5.42655L2.21995 9.42655C2.15307 9.50722 2.06812 9.571 1.97198 9.6127C1.87584 9.6544 1.77122 9.67285 1.66662 9.66655Z" fill="#746ED1"/>
</svg>
