<svg width="5" height="10" viewBox="0 0 5 10" fill="none" xmlns="http://www.w3.org/2000/svg">
<path d="M0.666864 9.66655C0.511095 9.66685 0.360138 9.6126 0.240197 9.51321C0.172691 9.45725 0.11689 9.38851 0.0759885 9.31095C0.0350872 9.23338 0.00988963 9.14851 0.00183905 9.06119C-0.00621152 8.97388 0.00304316 8.88583 0.0290728 8.80209C0.0551025 8.71836 0.0973952 8.64058 0.15353 8.57321L3.1402 4.99988L0.260197 1.41988C0.20482 1.35169 0.163465 1.27322 0.138511 1.189C0.113556 1.10477 0.105494 1.01644 0.114787 0.929091C0.124079 0.841738 0.150544 0.757084 0.19266 0.679993C0.234776 0.602902 0.291712 0.534894 0.360197 0.479879C0.429174 0.419188 0.509951 0.37341 0.597459 0.345417C0.684968 0.317424 0.777318 0.307822 0.868713 0.317212C0.960108 0.326602 1.04858 0.354781 1.12856 0.399983C1.20855 0.445184 1.27833 0.506431 1.33353 0.579879L4.55353 4.57988C4.65158 4.69917 4.70519 4.8488 4.70519 5.00321C4.70519 5.15763 4.65158 5.30726 4.55353 5.42655L1.2202 9.42655C1.15332 9.50722 1.06836 9.571 0.972223 9.6127C0.876083 9.6544 0.771467 9.67285 0.666864 9.66655Z" fill="white"/>
</svg>
