<svg xmlns="http://www.w3.org/2000/svg" viewBox="0 0 180 180"><g id="Layer_2" data-name="Layer 2"><path d="M77.37,112.75c3.33-5.07,7.92-8.11,12.63-8.11s9.3,3,12.64,8.11Z" style="fill:#a29eed"/><path d="M90,100.14c-8.73,0-16.22,7.1-19.87,17.11h39.74c-3.65-10-11.14-17.11-19.87-17.11Z" style="fill:#a29eed"/><path d="M73.44,58a35.48,35.48,0,0,1-.91-4.68h34.94a35.48,35.48,0,0,1-.91,4.68Z" style="fill:#a29eed"/><path d="M112.24,48.83H67.76a40.14,40.14,0,0,0,2.37,13.68h39.74a40.14,40.14,0,0,0,2.37-13.68Z" style="fill:#a29eed"/><path d="M90,168.46a78.78,78.78,0,1,1,78.77-78.78A78.86,78.86,0,0,1,90,168.46Zm-40.31-41a9.64,9.64,0,0,0-5.24,8.57v3.43a9.64,9.64,0,0,0,9.63,9.63h71.84a9.64,9.64,0,0,0,9.63-9.63v-3.42a9.63,9.63,0,0,0-5.23-8.57c-1-16-8.62-30-20.25-37.65,11.48-7.73,19.25-21.86,20.24-37.58a9.64,9.64,0,0,0,5.24-8.57V40.28a9.63,9.63,0,0,0-9.62-9.64H54.08a9.64,9.64,0,0,0-9.63,9.63V43.7a9.65,9.65,0,0,0,5.23,8.57c1,16,8.62,29.95,20.26,37.64C58.45,97.64,50.69,111.76,49.69,127.49Z" style="fill:#a29eed"/><path d="M90,15.41a73.84,73.84,0,0,1,39,11.06,14,14,0,0,0-3-.33H54.08a14.45,14.45,0,0,0-3,.33A73.82,73.82,0,0,1,90,15.41M41.88,33.15A14,14,0,0,0,40,40.28V43.7a14.09,14.09,0,0,0,5.43,11.12,56,56,0,0,0,8.44,24.74,49.15,49.15,0,0,0,8.81,10.32,49.15,49.15,0,0,0-8.81,10.32,56,56,0,0,0-8.44,24.74A14.12,14.12,0,0,0,40,136.06v3.43a14,14,0,0,0,1.53,6.38,74.18,74.18,0,0,1,.4-112.72m96.26,0a74.18,74.18,0,0,1,.38,112.7,14,14,0,0,0,1.53-6.38v-3.42a14.22,14.22,0,0,0-5.42-11.14,56,56,0,0,0-8.45-24.73,49.11,49.11,0,0,0-8.8-10.32,49.4,49.4,0,0,0,8.8-10.32,56.15,56.15,0,0,0,8.45-24.74,14.11,14.11,0,0,0,5.42-11.12V40.28a14,14,0,0,0-1.91-7.11M52,153.46a14.79,14.79,0,0,0,2.12.16h71.84a14.79,14.79,0,0,0,2.12-.16,74.16,74.16,0,0,1-76.08,0m38-147a83.28,83.28,0,1,0,83.27,83.27A83.27,83.27,0,0,0,90,6.41ZM54.08,48.83A5.13,5.13,0,0,1,49,43.7V40.28h0a5.13,5.13,0,0,1,5.13-5.13h71.85a5.13,5.13,0,0,1,5.12,5.14V43.7a5.13,5.13,0,0,1-5.13,5.13c0,19.46-10.91,35.86-25.85,41.05,14.94,5.19,25.85,21.59,25.85,41.05h0a5.13,5.13,0,0,1,5.12,5.13v3.43a5.13,5.13,0,0,1-5.13,5.13H54.08A5.13,5.13,0,0,1,49,139.49v-3.43h0a5.13,5.13,0,0,1,5.13-5.13h0c0-19.46,10.92-35.86,25.85-41.05C65,84.69,54.08,68.29,54.08,48.83Z" style="fill:#a29eed"/></g></svg>