<svg xmlns="http://www.w3.org/2000/svg" viewBox="0 0 180 180"><defs><style>.cls-1{fill:#524acd;stroke-miterlimit:10;stroke-width:5px;}.cls-1,.cls-2{stroke:#524acd;}.cls-2{fill:none;stroke-linecap:round;stroke-linejoin:round;stroke-width:20px;}</style></defs><g id="Layer_2" data-name="Layer 2"><path class="cls-1" d="M93.65,58.05a6.89,6.89,0,0,0-5.31,0,6.78,6.78,0,0,0-1.74,1.16c-.16.13-.35.18-.49.32L48.26,97.38A6.92,6.92,0,0,0,58,107.16l26-26v74.15a6.92,6.92,0,1,0,13.83,0V81.12l26.05,26a6.92,6.92,0,0,0,9.78-9.78L95.89,59.53c-.15-.14-.34-.19-.49-.32A6.83,6.83,0,0,0,93.65,58.05Z"/><line class="cls-2" x1="25.99" y1="27.83" x2="156.01" y2="27.83"/></g></svg>