<svg id="Layer_1" data-name="Layer 1" xmlns="http://www.w3.org/2000/svg" viewBox="0 0 180 180"><path d="M90,7.17A82.83,82.83,0,1,0,172.83,90,82.93,82.93,0,0,0,90,7.17Zm0,13a69.78,69.78,0,0,1,59.15,106.88l-5-13.24-2.43-1c-57.6-23.27-98.52-.63-100.23.35l-1.71,1-7,15.73A69.78,69.78,0,0,1,90,20.17Zm0,139.67A69.57,69.57,0,0,1,41.33,140L49,122.79a90.09,90.09,0,0,1,23.61-7c14-2.27,36-2.79,62.14,7.2l5.75,15.13A69.63,69.63,0,0,1,90,159.84Z" style="fill:#524acd"/><path d="M90,98.81A31.89,31.89,0,1,0,58.12,66.92,31.92,31.92,0,0,0,90,98.81ZM90,47A19.89,19.89,0,1,1,70.12,66.92,19.9,19.9,0,0,1,90,47Z" style="fill:#524acd"/></svg>